<?xml version="1.0" standalone="no"?>
<!DOCTYPE svg PUBLIC "-//W3C//DTD SVG 20010904//EN"
 "http://www.w3.org/TR/2001/REC-SVG-20010904/DTD/svg10.dtd">
<svg version="1.0" xmlns="http://www.w3.org/2000/svg"
 width="205.000000pt" height="205.000000pt" viewBox="0 0 205.000000 205.000000"
 preserveAspectRatio="xMidYMid meet">
<metadata>
Created by potrace 1.14, written by Peter Selinger 2001-2017
</metadata>
<g transform="translate(0.000000,205.000000) scale(0.100000,-0.100000)"
fill="#000000" stroke="none">
<path d="M954 1818 c-11 -17 -6 -135 6 -158 6 -11 8 -20 5 -20 -3 0 1 -13 10
-30 20 -38 19 -41 -7 -31 -13 4 -34 7 -48 5 -14 -1 -40 -4 -58 -5 -18 -2 -36
-7 -38 -11 -3 -5 -9 -6 -14 -3 -5 3 -21 0 -37 -7 -15 -6 -30 -12 -33 -13 -12
-2 -85 -40 -90 -45 -3 -3 -21 -17 -40 -30 -19 -14 -47 -36 -62 -50 -20 -19
-45 -28 -105 -38 -120 -19 -143 -24 -195 -43 -26 -10 -26 -12 -22 -82 3 -40
16 -109 30 -154 23 -77 24 -116 5 -148 -3 -5 -6 -14 -7 -20 -2 -12 -61 -169
-79 -210 -7 -16 -34 -82 -60 -145 -25 -63 -54 -124 -65 -135 -15 -16 -16 -24
-7 -40 22 -40 37 -49 65 -38 20 7 33 6 48 -4 22 -14 54 -9 54 8 0 6 10 1 22
-11 24 -22 43 -26 53 -10 3 6 17 10 30 10 15 0 26 7 30 21 7 20 12 21 94 15
226 -17 316 -24 316 -26 0 0 29 -3 65 -5 36 -2 94 -7 130 -10 111 -10 152 -14
240 -20 47 -3 94 -8 105 -10 11 -2 39 -4 62 -4 39 -1 42 -3 40 -29 -2 -22 2
-28 25 -30 18 -2 31 4 41 19 15 21 15 21 19 -7 2 -24 8 -29 31 -29 15 1 27 -3
27 -7 0 -15 53 -8 72 9 11 9 18 11 18 5 0 -20 45 -13 69 9 18 17 30 20 69 15
26 -3 72 -8 102 -11 30 -3 72 -8 92 -10 31 -4 36 -2 33 13 -7 39 -56 143 -113
238 -62 105 -110 227 -132 331 -12 59 -11 64 11 100 13 21 25 40 28 43 19 17
111 197 111 216 0 6 -8 14 -17 17 -47 14 -251 89 -273 99 -14 7 -52 39 -86 73
-60 60 -158 134 -185 139 -8 2 -34 12 -58 23 -35 17 -60 20 -127 18 l-84 -2
-2 41 c0 23 -1 48 0 56 1 23 -48 119 -74 146 -29 28 -30 28 -40 12z"/>
</g>
</svg>
